<svg xmlns="http://www.w3.org/2000/svg" xmlns:xlink="http://www.w3.org/1999/xlink" xmlns:lucid="lucid" width="1242" height="778"><g transform="translate(-43 -37)" lucid:page-tab-id="0_0"><path d="M0 0h1328.5v861H0z" fill="#fff"/><path d="M60 64.4a8 8 0 0 1 8-8h144a8 8 0 0 1 8 8v51.2a8 8 0 0 1-8 8H68a8 8 0 0 1-8-8z" stroke="#75796c" fill="#4c662b"/><use xlink:href="#a" transform="matrix(1,0,0,1,72,68.4) translate(8.124999999999993 17.15)"/><use xlink:href="#b" transform="matrix(1,0,0,1,72,68.4) translate(62.975 17.15)"/><use xlink:href="#c" transform="matrix(1,0,0,1,72,68.4) translate(24.074999999999996 38.75)"/><path d="M360 248a8 8 0 0 1 8-8h144a8 8 0 0 1 8 8v44a8 8 0 0 1-8 8H368a8 8 0 0 1-8-8z" stroke="#75796c" fill="#4c662b"/><use xlink:href="#d" transform="matrix(1,0,0,1,372,252) translate(49.525 21.15)"/><path d="M700 244.4a8 8 0 0 1 8-8h144a8 8 0 0 1 8 8v51.2a8 8 0 0 1-8 8H708a8 8 0 0 1-8-8z" stroke="#75796c" fill="#4c662b"/><use xlink:href="#e" transform="matrix(1,0,0,1,712,248.4) translate(43.074999999999996 17.15)"/><use xlink:href="#f" transform="matrix(1,0,0,1,712,248.4) translate(0.09999999999999432 38.75)"/><path d="M1040 244.4a8 8 0 0 1 8-8h144a8 8 0 0 1 8 8v51.2a8 8 0 0 1-8 8h-144a8 8 0 0 1-8-8z" stroke="#75796c" fill="#4c662b"/><use xlink:href="#e" transform="matrix(1,0,0,1,1052,248.4) translate(43.074999999999996 17.15)"/><use xlink:href="#g" transform="matrix(1,0,0,1,1052,248.4) translate(5.599999999999994 38.75)"/><path d="M980 448.5a8 8 0 0 1 8-8h264a8 8 0 0 1 8 8v44a8 8 0 0 1-8 8H988a8 8 0 0 1-8-8z" stroke="#75796c" fill="#4c662b"/><use xlink:href="#h" transform="matrix(1,0,0,1,992,452.5000000000001) translate(5.7250000000000085 21.15)"/><path d="M260 448.5a8 8 0 0 1 8-8h244a8 8 0 0 1 8 8v44a8 8 0 0 1-8 8H268a8 8 0 0 1-8-8z" stroke="#75796c" fill="#4c662b"/><use xlink:href="#i" transform="matrix(1,0,0,1,272,452.5000000000001) translate(2.6750000000000114 21.15)"/><path d="M221 90h57a12 12 0 0 1 12 12v156a12 12 0 0 0 12 12h41.12" stroke="#333" fill="none"/><path d="M221 90.47h-.5v-.94h.5z" stroke="#333" stroke-width=".05" fill="#333"/><path d="M357.88 270l-14.26 4.63v-9.26z" stroke="#333" fill="#333"/><path d="M521 270h162.12" stroke="#333" fill="none"/><path d="M521 270.48h-.5v-.96h.5z" stroke="#333" stroke-width=".05" fill="#333"/><path d="M697.88 270l-14.26 4.63v-9.26z" stroke="#333" fill="#333"/><path d="M861 270h162.12" stroke="#333" fill="none"/><path d="M861 270.48h-.5v-.96h.5z" stroke="#333" stroke-width=".05" fill="#333"/><path d="M1037.88 270l-14.26 4.63v-9.26z" stroke="#333" fill="#333"/><path d="M1120 304.6v119.02" stroke="#333" fill="none"/><path d="M1120.47 304.6h-.94v-.5h.94z" stroke="#333" stroke-width=".05" fill="#333"/><path d="M1120 438.38l-4.63-14.26h9.27z" stroke="#333" fill="#333"/><path d="M979 470.5H536.88" stroke="#333" fill="none"/><path d="M979.5 470.98h-.5v-.96h.5z" stroke="#333" stroke-width=".05" fill="#333"/><path d="M522.12 470.5l14.26-4.63v9.26z" stroke="#333" fill="#333"/><path d="M20.5 179.5h5m5.02 0h1m5.02 0h1m5 0h10.03m5.02 0h1m5 0h1m5 0h10.04m5 0h1m5.02 0h1m5.02 0h10.02m5 0h1m5.02 0h1m5.02 0h10.02m5 0h1.02m5 0h1m5.02 0h10.02m5.02 0h1m5 0h1m5.02 0h10.03m5 0h1m5 0h1m5.03 0h10.02m5 0h1m5.03 0h1m5 0h10.03m5.02 0h1m5.02 0h1m5 0h10.03m5.02 0h1m5 0h1m5 0h10.04m5 0h1m5.02 0h1m5.02 0h10.02m5 0h1m5.03 0h1m5 0h10.03m5 0h1m5.03 0h1m5 0h10.02m5.02 0h1m5 0h1m5.02 0h10.03m5 0h1m5 0h1m5.03 0h10.02m5 0h1m5.03 0h1m5 0h10.03m5.02 0h1m5.02 0h1m5 0h10.03m5.02 0h1m5 0h1m5 0h10.04m5 0h1m5.02 0h1m5.02 0h10.02m5 0h1m5.02 0h1m5.02 0h10.02m5 0h1m5.03 0h1m5 0h10.02m5.02 0h1m5 0h1m5.02 0h10.03m5 0h1m5 0h1m5.03 0h10.02m5 0h1m5.02 0h1m5.02 0h10m5.02 0h1m5.02 0h1m5 0h10.03m5.02 0h1m5 0h1m5 0h10.04m5 0h1m5.02 0h1m5.02 0h10.02m5 0h1m5.02 0h1m5.02 0h10.02m5 0h1m5.03 0h1m5 0h10.02m5.02 0h1m5 0h1m5.02 0h10.03m5 0h1m5 0h1m5.03 0h10.02m5 0h1m5.02 0h1m5.02 0h10m5.02 0h1m5.02 0h1m5 0h10.03m5.02 0h1m5 0h1m5 0h10.04m5 0h1m5.02 0h1m5.02 0h10.02m5 0h1m5.02 0h1m5.02 0h10.02m5 0h1m5.03 0h1m5 0h10.02m5.02 0h1m5 0h1m5.02 0h10.03m5 0h1m5 0h1m5.03 0h10.02m5 0h1m5.02 0h1m5.02 0h10m5.02 0h1m5.02 0h1m5 0h10.03m5.02 0h1m5 0h1m5 0h10.04m5 0h1m5.02 0h1m5.02 0h10.02m5 0h1m5.02 0h1m5.02 0h10.02m5 0h1.02m5 0h1m5.02 0h10.02m5.02 0h1m5 0h1m5.02 0h10.03m5 0h1m5 0h1m5.03 0h10.02m5 0h1m5.02 0h1m5.02 0h5M20.5 179.5H20M1319.5 179.5h.5M29 560.25h5m5.02 0h1m5.02 0h1m5 0h10.03m5.02 0h1m5 0h1m5 0h10.04m5 0h1m5.02 0h1m5.02 0h10.02m5 0h1m5.02 0h1m5.02 0h10.02m5 0h1.02m5 0h1m5.02 0h10.02m5.02 0h1m5 0h1m5.02 0h10.03m5 0h1m5 0h1m5.03 0h10.02m5 0h1m5.03 0h1m5 0h10.03m5.02 0h1m5.02 0h1m5 0h10.03m5.02 0h1m5 0h1m5 0h10.04m5 0h1m5.02 0h1m5.02 0h10.02m5 0h1m5.03 0h1m5 0h10.03m5 0h1m5.03 0h1m5 0h10.02m5.02 0h1m5 0h1m5.02 0h10.03m5 0h1m5 0h1m5.03 0h10.02m5 0h1m5.03 0h1m5 0h10.03m5.02 0h1m5.02 0h1m5 0h10.03m5.02 0h1m5 0h1m5 0h10.04m5 0h1m5.02 0h1m5.02 0h10.02m5 0h1m5.02 0h1m5.02 0h10.02m5 0h1m5.03 0h1m5 0h10.02m5.02 0h1m5 0h1m5.02 0h10.03m5 0h1m5 0h1m5.03 0h10.02m5 0h1m5.02 0h1m5.02 0h10m5.02 0h1m5.02 0h1m5 0h10.03m5.02 0h1m5 0h1m5 0h10.04m5 0h1m5.02 0h1m5.02 0h10.02m5 0h1m5.02 0h1m5.02 0h10.02m5 0h1m5.03 0h1m5 0h10.02m5.02 0h1m5 0h1m5.02 0h10.03m5 0h1m5 0h1m5.03 0h10.02m5 0h1m5.02 0h1m5.02 0h10m5.02 0h1m5.02 0h1m5 0h10.03m5.02 0h1m5 0h1m5 0h10.04m5 0h1m5.02 0h1m5.02 0h10.02m5 0h1m5.02 0h1m5.02 0h10.02m5 0h1m5.03 0h1m5 0h10.02m5.02 0h1m5 0h1m5.02 0h10.03m5 0h1m5 0h1m5.03 0h10.02m5 0h1m5.02 0h1m5.02 0h10m5.02 0h1m5.02 0h1m5 0h10.03m5.02 0h1m5 0h1m5 0h10.04m5 0h1m5.02 0h1m5.02 0h10.02m5 0h1m5.02 0h1m5.02 0h10.02m5 0h1.02m5 0h1m5.02 0h10.02m5.02 0h1m5 0h1m5.02 0h10.03m5 0h1m5 0h1m5.03 0h10.02m5 0h1m5.02 0h1m5.02 0h5M29 560.25h-.5M1328 560.25h.5" stroke="#333" fill="none"/><path d="M1080 68a8 8 0 0 1 8-8h224a8 8 0 0 1 8 8v44a8 8 0 0 1-8 8h-224a8 8 0 0 1-8-8z" fill="none"/><use xlink:href="#j" transform="matrix(1,0,0,1,1080,60) translate(51.099999999999994 33.6)"/><use xlink:href="#k" transform="matrix(1,0,0,1,1080,60) translate(143.95 33.6)"/><path d="M0 328a8 8 0 0 1 8-8h224a8 8 0 0 1 8 8v44a8 8 0 0 1-8 8H8a8 8 0 0 1-8-8z" fill="none"/><use xlink:href="#l" transform="matrix(1,0,0,1,0,320) translate(50.150000000000006 33.6)"/><use xlink:href="#k" transform="matrix(1,0,0,1,0,320) translate(144.9 33.6)"/><path d="M1080 688a8 8 0 0 1 8-8h224a8 8 0 0 1 8 8v44a8 8 0 0 1-8 8h-224a8 8 0 0 1-8-8z" fill="none"/><use xlink:href="#m" transform="matrix(1,0,0,1,1080,680) translate(69.57499999999999 33.6)"/><use xlink:href="#k" transform="matrix(1,0,0,1,1080,680) translate(125.475 33.6)"/><path d="M260 648a8 8 0 0 1 8-8h244a8 8 0 0 1 8 8v143a8 8 0 0 1-8 8H268a8 8 0 0 1-8-8z" stroke="#333" fill="#4c662b"/><g><use xlink:href="#n" transform="matrix(1,0,0,1,272,652) translate(0 14.4)"/></g><path d="M367 686a8 8 0 0 1 8-8h126a8 8 0 0 1 8 8v92a8 8 0 0 1-8 8H375a8 8 0 0 1-8-8z" stroke="#c5c8ba" fill="#fff"/><g><use xlink:href="#o" transform="matrix(1,0,0,1,379,690.0000499999999) translate(20.549999999999997 45.9)"/></g><path d="M390 501.5v75.75a12 12 0 0 0 12 12h24a12 12 0 0 1 12 12v59.87" stroke="#333" fill="none"/><path d="M390.48 501.5h-.96v-.5h.96z" stroke="#333" stroke-width=".05" fill="#333"/><path d="M438 675.88l-4.63-14.26h9.26z" stroke="#333" fill="#333"/><defs><path fill="#f2f3f5" d="M232-93c-1 65-40 97-104 97C67 4 28-28 28-90v-158h33c8 89-33 224 67 224 102 0 64-133 71-224h33v155" id="p"/><path fill="#f2f3f5" d="M63-220v92h138v28H63V0H30v-248h175v28H63" id="q"/><path fill="#f2f3f5" d="M205 0l-28-72H64L36 0H1l101-248h38L239 0h-34zm-38-99l-47-123c-12 45-31 82-46 123h93" id="r"/><path fill="#f2f3f5" d="M240 0l2-218c-23 76-54 145-80 218h-23L58-218 59 0H30v-248h44l77 211c21-75 51-140 76-211h43V0h-30" id="s"/><g id="a"><use transform="matrix(0.05,0,0,0.05,0,0)" xlink:href="#p"/><use transform="matrix(0.05,0,0,0.05,12.950000000000001,0)" xlink:href="#q"/><use transform="matrix(0.05,0,0,0.05,22.900000000000002,0)" xlink:href="#r"/><use transform="matrix(0.05,0,0,0.05,34.900000000000006,0)" xlink:href="#s"/></g><path fill="#f2f3f5" d="M185-189c-5-48-123-54-124 2 14 75 158 14 163 119 3 78-121 87-175 55-17-10-28-26-33-46l33-7c5 56 141 63 141-1 0-78-155-14-162-118-5-82 145-84 179-34 5 7 8 16 11 25" id="t"/><path fill="#f2f3f5" d="M100-194c63 0 86 42 84 106H49c0 40 14 67 53 68 26 1 43-12 49-29l28 8c-11 28-37 45-77 45C44 4 14-33 15-96c1-61 26-98 85-98zm52 81c6-60-76-77-97-28-3 7-6 17-6 28h103" id="u"/><path fill="#f2f3f5" d="M96-169c-40 0-48 33-48 73s9 75 48 75c24 0 41-14 43-38l32 2c-6 37-31 61-74 61-59 0-76-41-82-99-10-93 101-131 147-64 4 7 5 14 7 22l-32 3c-4-21-16-35-41-35" id="v"/><path fill="#f2f3f5" d="M84 4C-5 8 30-112 23-190h32v120c0 31 7 50 39 49 72-2 45-101 50-169h31l1 190h-30c-1-10 1-25-2-33-11 22-28 36-60 37" id="w"/><path fill="#f2f3f5" d="M114-163C36-179 61-72 57 0H25l-1-190h30c1 12-1 29 2 39 6-27 23-49 58-41v29" id="x"/><path fill="#f2f3f5" d="M24-231v-30h32v30H24zM24 0v-190h32V0H24" id="y"/><path fill="#f2f3f5" d="M59-47c-2 24 18 29 38 22v24C64 9 27 4 27-40v-127H5v-23h24l9-43h21v43h35v23H59v120" id="z"/><path fill="#f2f3f5" d="M179-190L93 31C79 59 56 82 12 73V49c39 6 53-20 64-50L1-190h34L92-34l54-156h33" id="A"/><g id="b"><use transform="matrix(0.05,0,0,0.05,0,0)" xlink:href="#t"/><use transform="matrix(0.05,0,0,0.05,12,0)" xlink:href="#u"/><use transform="matrix(0.05,0,0,0.05,22,0)" xlink:href="#v"/><use transform="matrix(0.05,0,0,0.05,31,0)" xlink:href="#w"/><use transform="matrix(0.05,0,0,0.05,41,0)" xlink:href="#x"/><use transform="matrix(0.05,0,0,0.05,46.95,0)" xlink:href="#y"/><use transform="matrix(0.05,0,0,0.05,50.900000000000006,0)" xlink:href="#z"/><use transform="matrix(0.05,0,0,0.05,55.900000000000006,0)" xlink:href="#A"/></g><path fill="#f2f3f5" d="M115-194c55 1 70 41 70 98S169 2 115 4C84 4 66-9 55-30l1 105H24l-1-265h31l2 30c10-21 28-34 59-34zm-8 174c40 0 45-34 45-75s-6-73-45-74c-42 0-51 32-51 76 0 43 10 73 51 73" id="B"/><path fill="#f2f3f5" d="M24 0v-261h32V0H24" id="C"/><path fill="#f2f3f5" d="M141-36C126-15 110 5 73 4 37 3 15-17 15-53c-1-64 63-63 125-63 3-35-9-54-41-54-24 1-41 7-42 31l-33-3c5-37 33-52 76-52 45 0 72 20 72 64v82c-1 20 7 32 28 27v20c-31 9-61-2-59-35zM48-53c0 20 12 33 32 33 41-3 63-29 60-74-43 2-92-5-92 41" id="D"/><path fill="#f2f3f5" d="M100-194c62-1 85 37 85 99 1 63-27 99-86 99S16-35 15-95c0-66 28-99 85-99zM99-20c44 1 53-31 53-75 0-43-8-75-51-75s-53 32-53 75 10 74 51 75" id="E"/><path fill="#f2f3f5" d="M117-194c89-4 53 116 60 194h-32v-121c0-31-8-49-39-48C34-167 62-67 57 0H25l-1-190h30c1 10-1 24 2 32 11-22 29-35 61-36" id="F"/><g id="c"><use transform="matrix(0.05,0,0,0.05,0,0)" xlink:href="#r"/><use transform="matrix(0.05,0,0,0.05,12,0)" xlink:href="#B"/><use transform="matrix(0.05,0,0,0.05,22,0)" xlink:href="#B"/><use transform="matrix(0.05,0,0,0.05,32,0)" xlink:href="#C"/><use transform="matrix(0.05,0,0,0.05,35.95,0)" xlink:href="#y"/><use transform="matrix(0.05,0,0,0.05,39.900000000000006,0)" xlink:href="#v"/><use transform="matrix(0.05,0,0,0.05,48.900000000000006,0)" xlink:href="#D"/><use transform="matrix(0.05,0,0,0.05,58.900000000000006,0)" xlink:href="#z"/><use transform="matrix(0.05,0,0,0.05,63.900000000000006,0)" xlink:href="#y"/><use transform="matrix(0.05,0,0,0.05,67.85000000000001,0)" xlink:href="#E"/><use transform="matrix(0.05,0,0,0.05,77.85000000000001,0)" xlink:href="#F"/></g><path fill="#fff" d="M185-189c-5-48-123-54-124 2 14 75 158 14 163 119 3 78-121 87-175 55-17-10-28-26-33-46l33-7c5 56 141 63 141-1 0-78-155-14-162-118-5-82 145-84 179-34 5 7 8 16 11 25" id="G"/><path fill="#fff" d="M30-248c118-7 216 8 213 122C240-48 200 0 122 0H30v-248zM63-27c89 8 146-16 146-99s-60-101-146-95v194" id="H"/><path fill="#fff" d="M194 0L95-120 63-95V0H30v-248h33v124l119-124h40L117-140 236 0h-42" id="I"/><g id="d"><use transform="matrix(0.05,0,0,0.05,0,0)" xlink:href="#G"/><use transform="matrix(0.05,0,0,0.05,12,0)" xlink:href="#H"/><use transform="matrix(0.05,0,0,0.05,24.950000000000003,0)" xlink:href="#I"/></g><path fill="#fff" d="M232-93c-1 65-40 97-104 97C67 4 28-28 28-90v-158h33c8 89-33 224 67 224 102 0 64-133 71-224h33v155" id="J"/><path fill="#fff" d="M63-220v92h138v28H63V0H30v-248h175v28H63" id="K"/><path fill="#fff" d="M205 0l-28-72H64L36 0H1l101-248h38L239 0h-34zm-38-99l-47-123c-12 45-31 82-46 123h93" id="L"/><path fill="#fff" d="M240 0l2-218c-23 76-54 145-80 218h-23L58-218 59 0H30v-248h44l77 211c21-75 51-140 76-211h43V0h-30" id="M"/><g id="e"><use transform="matrix(0.05,0,0,0.05,0,0)" xlink:href="#J"/><use transform="matrix(0.05,0,0,0.05,12.950000000000001,0)" xlink:href="#K"/><use transform="matrix(0.05,0,0,0.05,22.900000000000002,0)" xlink:href="#L"/><use transform="matrix(0.05,0,0,0.05,34.900000000000006,0)" xlink:href="#M"/></g><path fill="#fff" d="M100-194c63 0 86 42 84 106H49c0 40 14 67 53 68 26 1 43-12 49-29l28 8c-11 28-37 45-77 45C44 4 14-33 15-96c1-61 26-98 85-98zm52 81c6-60-76-77-97-28-3 7-6 17-6 28h103" id="N"/><path fill="#fff" d="M96-169c-40 0-48 33-48 73s9 75 48 75c24 0 41-14 43-38l32 2c-6 37-31 61-74 61-59 0-76-41-82-99-10-93 101-131 147-64 4 7 5 14 7 22l-32 3c-4-21-16-35-41-35" id="O"/><path fill="#fff" d="M84 4C-5 8 30-112 23-190h32v120c0 31 7 50 39 49 72-2 45-101 50-169h31l1 190h-30c-1-10 1-25-2-33-11 22-28 36-60 37" id="P"/><path fill="#fff" d="M114-163C36-179 61-72 57 0H25l-1-190h30c1 12-1 29 2 39 6-27 23-49 58-41v29" id="Q"/><path fill="#fff" d="M24-231v-30h32v30H24zM24 0v-190h32V0H24" id="R"/><path fill="#fff" d="M59-47c-2 24 18 29 38 22v24C64 9 27 4 27-40v-127H5v-23h24l9-43h21v43h35v23H59v120" id="S"/><path fill="#fff" d="M179-190L93 31C79 59 56 82 12 73V49c39 6 53-20 64-50L1-190h34L92-34l54-156h33" id="T"/><path fill="#fff" d="M141-36C126-15 110 5 73 4 37 3 15-17 15-53c-1-64 63-63 125-63 3-35-9-54-41-54-24 1-41 7-42 31l-33-3c5-37 33-52 76-52 45 0 72 20 72 64v82c-1 20 7 32 28 27v20c-31 9-61-2-59-35zM48-53c0 20 12 33 32 33 41-3 63-29 60-74-43 2-92-5-92 41" id="U"/><path fill="#fff" d="M117-194c89-4 53 116 60 194h-32v-121c0-31-8-49-39-48C34-167 62-67 57 0H25l-1-190h30c1 10-1 24 2 32 11-22 29-35 61-36" id="V"/><path fill="#fff" d="M177-190C167-65 218 103 67 71c-23-6-38-20-44-43l32-5c15 47 100 32 89-28v-30C133-14 115 1 83 1 29 1 15-40 15-95c0-56 16-97 71-98 29-1 48 16 59 35 1-10 0-23 2-32h30zM94-22c36 0 50-32 50-73 0-42-14-75-50-75-39 0-46 34-46 75s6 73 46 73" id="W"/><g id="f"><use transform="matrix(0.05,0,0,0.05,0,0)" xlink:href="#G"/><use transform="matrix(0.05,0,0,0.05,12,0)" xlink:href="#N"/><use transform="matrix(0.05,0,0,0.05,22,0)" xlink:href="#O"/><use transform="matrix(0.05,0,0,0.05,31,0)" xlink:href="#P"/><use transform="matrix(0.05,0,0,0.05,41,0)" xlink:href="#Q"/><use transform="matrix(0.05,0,0,0.05,46.95,0)" xlink:href="#R"/><use transform="matrix(0.05,0,0,0.05,50.900000000000006,0)" xlink:href="#S"/><use transform="matrix(0.05,0,0,0.05,55.900000000000006,0)" xlink:href="#T"/><use transform="matrix(0.05,0,0,0.05,64.9,0)" xlink:href="#M"/><use transform="matrix(0.05,0,0,0.05,79.85000000000001,0)" xlink:href="#U"/><use transform="matrix(0.05,0,0,0.05,89.85000000000001,0)" xlink:href="#V"/><use transform="matrix(0.05,0,0,0.05,99.85000000000001,0)" xlink:href="#U"/><use transform="matrix(0.05,0,0,0.05,109.85000000000001,0)" xlink:href="#W"/><use transform="matrix(0.05,0,0,0.05,119.85000000000001,0)" xlink:href="#N"/><use transform="matrix(0.05,0,0,0.05,129.85000000000002,0)" xlink:href="#Q"/></g><path fill="#fff" d="M108 0H70L1-190h34L89-25l56-165h34" id="X"/><g id="g"><use transform="matrix(0.05,0,0,0.05,0,0)" xlink:href="#G"/><use transform="matrix(0.05,0,0,0.05,12,0)" xlink:href="#N"/><use transform="matrix(0.05,0,0,0.05,22,0)" xlink:href="#O"/><use transform="matrix(0.05,0,0,0.05,31,0)" xlink:href="#P"/><use transform="matrix(0.05,0,0,0.05,41,0)" xlink:href="#Q"/><use transform="matrix(0.05,0,0,0.05,46.95,0)" xlink:href="#R"/><use transform="matrix(0.05,0,0,0.05,50.900000000000006,0)" xlink:href="#S"/><use transform="matrix(0.05,0,0,0.05,55.900000000000006,0)" xlink:href="#T"/><use transform="matrix(0.05,0,0,0.05,64.9,0)" xlink:href="#G"/><use transform="matrix(0.05,0,0,0.05,76.9,0)" xlink:href="#N"/><use transform="matrix(0.05,0,0,0.05,86.9,0)" xlink:href="#Q"/><use transform="matrix(0.05,0,0,0.05,92.85000000000001,0)" xlink:href="#X"/><use transform="matrix(0.05,0,0,0.05,101.85000000000001,0)" xlink:href="#R"/><use transform="matrix(0.05,0,0,0.05,105.80000000000001,0)" xlink:href="#O"/><use transform="matrix(0.05,0,0,0.05,114.80000000000001,0)" xlink:href="#N"/></g><path fill="#fff" d="M190 0L58-211 59 0H30v-248h39L202-35l-2-213h31V0h-41" id="Y"/><path fill="#fff" d="M206 0h-36l-40-164L89 0H53L-1-190h32L70-26l43-164h34l41 164 42-164h31" id="Z"/><path fill="#fff" d="M100-194c62-1 85 37 85 99 1 63-27 99-86 99S16-35 15-95c0-66 28-99 85-99zM99-20c44 1 53-31 53-75 0-43-8-75-51-75s-53 32-53 75 10 74 51 75" id="aa"/><path fill="#fff" d="M143 0L79-87 56-68V0H24v-261h32v163l83-92h37l-77 82L181 0h-38" id="ab"/><path fill="#fff" d="M30-248c87 1 191-15 191 75 0 78-77 80-158 76V0H30v-248zm33 125c57 0 124 11 124-50 0-59-68-47-124-48v98" id="ac"/><path fill="#fff" d="M24 0v-261h32V0H24" id="ad"/><g id="h"><use transform="matrix(0.05,0,0,0.05,0,0)" xlink:href="#Y"/><use transform="matrix(0.05,0,0,0.05,12.950000000000001,0)" xlink:href="#N"/><use transform="matrix(0.05,0,0,0.05,22.950000000000003,0)" xlink:href="#S"/><use transform="matrix(0.05,0,0,0.05,27.950000000000003,0)" xlink:href="#Z"/><use transform="matrix(0.05,0,0,0.05,40.900000000000006,0)" xlink:href="#aa"/><use transform="matrix(0.05,0,0,0.05,50.900000000000006,0)" xlink:href="#Q"/><use transform="matrix(0.05,0,0,0.05,56.85,0)" xlink:href="#ab"/><use transform="matrix(0.05,0,0,0.05,65.85000000000001,0)" xlink:href="#ac"/><use transform="matrix(0.05,0,0,0.05,77.85000000000001,0)" xlink:href="#aa"/><use transform="matrix(0.05,0,0,0.05,87.85000000000001,0)" xlink:href="#ad"/><use transform="matrix(0.05,0,0,0.05,91.80000000000001,0)" xlink:href="#R"/><use transform="matrix(0.05,0,0,0.05,95.75000000000001,0)" xlink:href="#O"/><use transform="matrix(0.05,0,0,0.05,104.75,0)" xlink:href="#T"/><use transform="matrix(0.05,0,0,0.05,113.75,0)" xlink:href="#M"/><use transform="matrix(0.05,0,0,0.05,128.70000000000002,0)" xlink:href="#U"/><use transform="matrix(0.05,0,0,0.05,138.70000000000002,0)" xlink:href="#V"/><use transform="matrix(0.05,0,0,0.05,148.70000000000002,0)" xlink:href="#U"/><use transform="matrix(0.05,0,0,0.05,158.70000000000002,0)" xlink:href="#W"/><use transform="matrix(0.05,0,0,0.05,168.70000000000002,0)" xlink:href="#N"/><use transform="matrix(0.05,0,0,0.05,178.70000000000002,0)" xlink:href="#Q"/><use transform="matrix(0.05,0,0,0.05,184.65,0)" xlink:href="#G"/><use transform="matrix(0.05,0,0,0.05,196.65,0)" xlink:href="#N"/><use transform="matrix(0.05,0,0,0.05,206.65,0)" xlink:href="#Q"/><use transform="matrix(0.05,0,0,0.05,212.60000000000002,0)" xlink:href="#X"/><use transform="matrix(0.05,0,0,0.05,221.60000000000002,0)" xlink:href="#R"/><use transform="matrix(0.05,0,0,0.05,225.54999999999995,0)" xlink:href="#O"/><use transform="matrix(0.05,0,0,0.05,234.54999999999995,0)" xlink:href="#N"/></g><path fill="#fff" d="M210-169c-67 3-38 105-44 169h-31v-121c0-29-5-50-35-48C34-165 62-65 56 0H25l-1-190h30c1 10-1 24 2 32 10-44 99-50 107 0 11-21 27-35 58-36 85-2 47 119 55 194h-31v-121c0-29-5-49-35-48" id="ae"/><g id="i"><use transform="matrix(0.05,0,0,0.05,0,0)" xlink:href="#Y"/><use transform="matrix(0.05,0,0,0.05,12.950000000000001,0)" xlink:href="#N"/><use transform="matrix(0.05,0,0,0.05,22.950000000000003,0)" xlink:href="#S"/><use transform="matrix(0.05,0,0,0.05,27.950000000000003,0)" xlink:href="#Z"/><use transform="matrix(0.05,0,0,0.05,40.900000000000006,0)" xlink:href="#aa"/><use transform="matrix(0.05,0,0,0.05,50.900000000000006,0)" xlink:href="#Q"/><use transform="matrix(0.05,0,0,0.05,56.85,0)" xlink:href="#ab"/><use transform="matrix(0.05,0,0,0.05,65.85000000000001,0)" xlink:href="#M"/><use transform="matrix(0.05,0,0,0.05,80.80000000000001,0)" xlink:href="#U"/><use transform="matrix(0.05,0,0,0.05,90.80000000000001,0)" xlink:href="#V"/><use transform="matrix(0.05,0,0,0.05,100.80000000000001,0)" xlink:href="#U"/><use transform="matrix(0.05,0,0,0.05,110.80000000000001,0)" xlink:href="#W"/><use transform="matrix(0.05,0,0,0.05,120.80000000000001,0)" xlink:href="#N"/><use transform="matrix(0.05,0,0,0.05,130.8,0)" xlink:href="#ae"/><use transform="matrix(0.05,0,0,0.05,145.75,0)" xlink:href="#N"/><use transform="matrix(0.05,0,0,0.05,155.75,0)" xlink:href="#V"/><use transform="matrix(0.05,0,0,0.05,165.75,0)" xlink:href="#S"/><use transform="matrix(0.05,0,0,0.05,170.75,0)" xlink:href="#G"/><use transform="matrix(0.05,0,0,0.05,182.75,0)" xlink:href="#N"/><use transform="matrix(0.05,0,0,0.05,192.75,0)" xlink:href="#Q"/><use transform="matrix(0.05,0,0,0.05,198.7,0)" xlink:href="#X"/><use transform="matrix(0.05,0,0,0.05,207.69999999999996,0)" xlink:href="#R"/><use transform="matrix(0.05,0,0,0.05,211.64999999999998,0)" xlink:href="#O"/><use transform="matrix(0.05,0,0,0.05,220.64999999999998,0)" xlink:href="#N"/></g><path d="M205 0l-28-72H64L36 0H1l101-248h38L239 0h-34zm-38-99l-47-123c-12 45-31 82-46 123h93" id="af"/><path d="M115-194c55 1 70 41 70 98S169 2 115 4C84 4 66-9 55-30l1 105H24l-1-265h31l2 30c10-21 28-34 59-34zm-8 174c40 0 45-34 45-75s-6-73-45-74c-42 0-51 32-51 76 0 43 10 73 51 73" id="ag"/><path d="M24 0v-261h32V0H24" id="ah"/><path d="M24-231v-30h32v30H24zM24 0v-190h32V0H24" id="ai"/><path d="M96-169c-40 0-48 33-48 73s9 75 48 75c24 0 41-14 43-38l32 2c-6 37-31 61-74 61-59 0-76-41-82-99-10-93 101-131 147-64 4 7 5 14 7 22l-32 3c-4-21-16-35-41-35" id="aj"/><path d="M141-36C126-15 110 5 73 4 37 3 15-17 15-53c-1-64 63-63 125-63 3-35-9-54-41-54-24 1-41 7-42 31l-33-3c5-37 33-52 76-52 45 0 72 20 72 64v82c-1 20 7 32 28 27v20c-31 9-61-2-59-35zM48-53c0 20 12 33 32 33 41-3 63-29 60-74-43 2-92-5-92 41" id="ak"/><path d="M59-47c-2 24 18 29 38 22v24C64 9 27 4 27-40v-127H5v-23h24l9-43h21v43h35v23H59v120" id="al"/><path d="M100-194c62-1 85 37 85 99 1 63-27 99-86 99S16-35 15-95c0-66 28-99 85-99zM99-20c44 1 53-31 53-75 0-43-8-75-51-75s-53 32-53 75 10 74 51 75" id="am"/><path d="M117-194c89-4 53 116 60 194h-32v-121c0-31-8-49-39-48C34-167 62-67 57 0H25l-1-190h30c1 10-1 24 2 32 11-22 29-35 61-36" id="an"/><g id="j"><use transform="matrix(0.05,0,0,0.05,0,0)" xlink:href="#af"/><use transform="matrix(0.05,0,0,0.05,12,0)" xlink:href="#ag"/><use transform="matrix(0.05,0,0,0.05,22,0)" xlink:href="#ag"/><use transform="matrix(0.05,0,0,0.05,32,0)" xlink:href="#ah"/><use transform="matrix(0.05,0,0,0.05,35.95,0)" xlink:href="#ai"/><use transform="matrix(0.05,0,0,0.05,39.900000000000006,0)" xlink:href="#aj"/><use transform="matrix(0.05,0,0,0.05,48.900000000000006,0)" xlink:href="#ak"/><use transform="matrix(0.05,0,0,0.05,58.900000000000006,0)" xlink:href="#al"/><use transform="matrix(0.05,0,0,0.05,63.900000000000006,0)" xlink:href="#ai"/><use transform="matrix(0.05,0,0,0.05,67.85000000000001,0)" xlink:href="#am"/><use transform="matrix(0.05,0,0,0.05,77.85000000000001,0)" xlink:href="#an"/></g><path d="M30 0v-248h33v221h125V0H30" id="ao"/><path d="M179-190L93 31C79 59 56 82 12 73V49c39 6 53-20 64-50L1-190h34L92-34l54-156h33" id="ap"/><path d="M100-194c63 0 86 42 84 106H49c0 40 14 67 53 68 26 1 43-12 49-29l28 8c-11 28-37 45-77 45C44 4 14-33 15-96c1-61 26-98 85-98zm52 81c6-60-76-77-97-28-3 7-6 17-6 28h103" id="aq"/><path d="M114-163C36-179 61-72 57 0H25l-1-190h30c1 12-1 29 2 39 6-27 23-49 58-41v29" id="ar"/><g id="k"><use transform="matrix(0.05,0,0,0.05,0,0)" xlink:href="#ao"/><use transform="matrix(0.05,0,0,0.05,10,0)" xlink:href="#ak"/><use transform="matrix(0.05,0,0,0.05,20,0)" xlink:href="#ap"/><use transform="matrix(0.05,0,0,0.05,29,0)" xlink:href="#aq"/><use transform="matrix(0.05,0,0,0.05,39,0)" xlink:href="#ar"/></g><path d="M63-220v92h138v28H63V0H30v-248h175v28H63" id="as"/><path d="M210-169c-67 3-38 105-44 169h-31v-121c0-29-5-50-35-48C34-165 62-65 56 0H25l-1-190h30c1 10-1 24 2 32 10-44 99-50 107 0 11-21 27-35 58-36 85-2 47 119 55 194h-31v-121c0-29-5-49-35-48" id="at"/><path d="M206 0h-36l-40-164L89 0H53L-1-190h32L70-26l43-164h34l41 164 42-164h31" id="au"/><path d="M143 0L79-87 56-68V0H24v-261h32v163l83-92h37l-77 82L181 0h-38" id="av"/><g id="l"><use transform="matrix(0.05,0,0,0.05,0,0)" xlink:href="#as"/><use transform="matrix(0.05,0,0,0.05,10.950000000000001,0)" xlink:href="#ar"/><use transform="matrix(0.05,0,0,0.05,16.900000000000002,0)" xlink:href="#ak"/><use transform="matrix(0.05,0,0,0.05,26.900000000000002,0)" xlink:href="#at"/><use transform="matrix(0.05,0,0,0.05,41.85,0)" xlink:href="#aq"/><use transform="matrix(0.05,0,0,0.05,51.85,0)" xlink:href="#au"/><use transform="matrix(0.05,0,0,0.05,64.8,0)" xlink:href="#am"/><use transform="matrix(0.05,0,0,0.05,74.8,0)" xlink:href="#ar"/><use transform="matrix(0.05,0,0,0.05,80.75,0)" xlink:href="#av"/></g><path d="M190 0L58-211 59 0H30v-248h39L202-35l-2-213h31V0h-41" id="aw"/><path d="M108 0H70L1-190h34L89-25l56-165h34" id="ax"/><g id="m"><use transform="matrix(0.05,0,0,0.05,0,0)" xlink:href="#aw"/><use transform="matrix(0.05,0,0,0.05,12.950000000000001,0)" xlink:href="#ak"/><use transform="matrix(0.05,0,0,0.05,22.950000000000003,0)" xlink:href="#al"/><use transform="matrix(0.05,0,0,0.05,27.950000000000003,0)" xlink:href="#ai"/><use transform="matrix(0.05,0,0,0.05,31.900000000000002,0)" xlink:href="#ax"/><use transform="matrix(0.05,0,0,0.05,40.900000000000006,0)" xlink:href="#aq"/></g><path fill="#fff" d="M85-194c31 0 48 13 60 33l-1-100h32l1 261h-30c-2-10 0-23-3-31C134-8 116 4 85 4 32 4 16-35 15-94c0-66 23-100 70-100zm9 24c-40 0-46 34-46 75 0 40 6 74 45 74 42 0 51-32 51-76 0-42-9-74-50-73" id="ay"/><g id="n"><use transform="matrix(0.05,0,0,0.05,0,0)" xlink:href="#Y"/><use transform="matrix(0.05,0,0,0.05,12.950000000000001,0)" xlink:href="#N"/><use transform="matrix(0.05,0,0,0.05,22.950000000000003,0)" xlink:href="#S"/><use transform="matrix(0.05,0,0,0.05,27.950000000000003,0)" xlink:href="#ay"/></g><path d="M140-251c81 0 123 46 123 126C263-46 219 4 140 4 59 4 17-45 17-125s42-126 123-126zm0 227c63 0 89-41 89-101s-29-99-89-99c-61 0-89 39-89 99S79-25 140-24" id="az"/><path d="M85-194c31 0 48 13 60 33l-1-100h32l1 261h-30c-2-10 0-23-3-31C134-8 116 4 85 4 32 4 16-35 15-94c0-66 23-100 70-100zm9 24c-40 0-46 34-46 75 0 40 6 74 45 74 42 0 51-32 51-76 0-42-9-74-50-73" id="aA"/><g id="o"><use transform="matrix(0.05,0,0,0.05,0,0)" xlink:href="#az"/><use transform="matrix(0.05,0,0,0.05,14,0)" xlink:href="#aq"/><use transform="matrix(0.05,0,0,0.05,24,0)" xlink:href="#at"/><use transform="matrix(0.05,0,0,0.05,38.95,0)" xlink:href="#aw"/><use transform="matrix(0.05,0,0,0.05,51.900000000000006,0)" xlink:href="#aq"/><use transform="matrix(0.05,0,0,0.05,61.900000000000006,0)" xlink:href="#al"/><use transform="matrix(0.05,0,0,0.05,66.9,0)" xlink:href="#aA"/></g></defs></g></svg>